<?xml version="1.0" encoding="UTF-8"?>
<svg id="_图层_1" data-name=" 图层 1" xmlns="http://www.w3.org/2000/svg" version="1.1" xmlns:xlink="http://www.w3.org/1999/xlink" viewBox="0 0 571.7 179.3">
  <defs>
    <style>
      .cls-1 {
        fill: #269ac9;
      }

      .cls-1, .cls-2, .cls-3, .cls-4, .cls-5, .cls-6, .cls-7, .cls-8, .cls-9, .cls-10, .cls-11, .cls-12, .cls-13, .cls-14, .cls-15 {
        stroke-width: 0px;
      }

      .cls-16, .cls-17, .cls-18, .cls-6, .cls-19, .cls-20, .cls-21, .cls-22, .cls-23, .cls-24, .cls-25, .cls-26, .cls-27, .cls-15, .cls-28 {
        isolation: isolate;
      }

      .cls-16, .cls-17, .cls-19, .cls-20, .cls-21, .cls-22, .cls-23, .cls-24, .cls-25, .cls-26, .cls-27, .cls-28 {
        fill: #231815;
      }

      .cls-16, .cls-17, .cls-19, .cls-20, .cls-21, .cls-22, .cls-25, .cls-26 {
        font-family: ArialMT, Arial;
      }

      .cls-16, .cls-20, .cls-22 {
        font-size: 18px;
      }

      .cls-2 {
        fill: #feffff;
      }

      .cls-17 {
        letter-spacing: -.1em;
      }

      .cls-17, .cls-19, .cls-26 {
        font-size: 9px;
      }

      .cls-3 {
        fill: #000;
      }

      .cls-4, .cls-6, .cls-15 {
        fill: #036eb8;
      }

      .cls-5 {
        fill: #b0d9ea;
      }

      .cls-29, .cls-15 {
        opacity: .5;
      }

      .cls-6 {
        opacity: .5;
      }

      .cls-30 {
        stroke: #036eb8;
        stroke-width: 2px;
      }

      .cls-30, .cls-31 {
        fill: none;
        stroke-miterlimit: 10;
      }

      .cls-7 {
        fill: #1c99c9;
      }

      .cls-8 {
        fill: #259bca;
      }

      .cls-31 {
        stroke: #221714;
        stroke-width: .5px;
      }

      .cls-20, .cls-26 {
        letter-spacing: 0em;
      }

      .cls-21, .cls-25, .cls-27 {
        font-size: 24px;
      }

      .cls-22 {
        letter-spacing: -.1em;
      }

      .cls-9 {
        fill: #1d99c9;
      }

      .cls-23 {
        font-family: Arial-BoldMT, Arial;
        font-size: 12px;
      }

      .cls-23, .cls-24, .cls-27, .cls-28 {
        font-weight: 700;
      }

      .cls-10 {
        fill: #239ac9;
      }

      .cls-11 {
        fill: #2099c9;
      }

      .cls-12 {
        fill: #fff;
      }

      .cls-24, .cls-27, .cls-28 {
        font-family: TimesNewRomanPS-BoldMT, 'Times New Roman';
      }

      .cls-24, .cls-28 {
        font-size: 32.2px;
      }

      .cls-25 {
        letter-spacing: 0em;
      }

      .cls-13 {
        fill: #68b7d8;
      }

      .cls-14 {
        fill: #229ac9;
      }

      .cls-28 {
        letter-spacing: 0em;
      }
    </style>
  </defs>
  <image class="cls-18" width="301" height="166" transform="translate(512 92.7) scale(.2)" xlink:href="internet_cat-1.png"/>
  <rect class="cls-15" x="164.3" y="40.8" width="165.4" height="28.3"/>
  <rect class="cls-6" y="0" width="571.7" height="26.5"/>
  <g class="cls-18">
    <text class="cls-23" transform="translate(27.5 19)"><tspan x="0" y="0">Understanding online engagement with cat videos and insights for management strategies</tspan></text>
  </g>
  <g>
    <path class="cls-12" d="M23.9,38.2h59.2c0,.9-.8,1-1.4,1.3-1.5.6-3,1.4-4.6,1.9-1.4.5-1.8,1.2-1.5,2.7,1.1,5.9,2.1,11.9,2.9,17.8,1.2,9,2.1,18.1,3,27.1,0,1,.3,2.1,0,3.2H27.1c.2-1,1-.8,1.7-.9,4.2-.7,8.3-1.5,12.1-3.4,2.2-1.2,4.3-2.6,5.9-4.5,1.8-2.1,1.6-4.1-.4-5.9-.8-.7-1.6-1.2-2.5-1.6-5.3-2.3-10.9-3.7-16.8-3.3-1.5,0-2.1-.5-2.2-1.9-.4-4.7-.8-9.4-1.1-14.1-.4-5.1-.2-10.3-.3-15.4,0-1,0-2,.5-2.9h0Z"/>
    <path class="cls-12" d="M133,89c0,1.1.4,2.6-.1,3.1-.5.5-2,.1-3.1.1h-42.4c.2-1,1.1-.8,1.7-.9,4.3-.8,8.7-1.6,12.6-3.7,1.9-1,3.7-2.2,5.1-3.9,2.2-2.8,1.9-4.9-1.1-6.8-3.6-2.3-7.7-3.3-11.9-4.1-2.1-.3-4.1-.6-6.2-.4-2,.2-2.5-.1-2.7-2.1-.3-2.8-.6-5.6-.8-8.5-.5-5.1-.3-10.2-.6-15.2-.2-2.8-.1-5.8.8-8.5,15.9,0,31.7,0,47.6,0,1.1,0,1.3.2,1.3,1.3,0,9.3,0,18.6,0,27.9-.2.1-.4.2-.6,0-1.2-.4-2.5-.7-3.8-.5-1.4.2-1.9.8-1.9,2.2.2,2.8.6,5.6.8,8.5.2,2.8.5,5.5.7,8.3.1,2.4.4,2.5,2.8,2.6.7,0,1.4,0,2,.5h0Z"/>
    <path class="cls-7" d="M84.1,38.2c-.4,7.9-.1,15.7.4,23.6.2,3,.5,6,.8,9,0,1,.3,1.4,1.7,1.3,7.1-.3,13.8,1.1,19.8,5.1,2.2,1.5,2.4,3.2,1.2,5.6-1.1,2-2.8,3.3-4.7,4.5-4.5,2.8-9.6,4-14.8,4.7-.4,0-.8-.1-1.1.3h-6.1c-.7-3.1-.7-6.2-1-9.3-.7-7-1.6-14.1-2.4-21.1-.8-6.3-1.8-12.5-3-18.7-.2-1.2.2-1.5,1.2-1.9,2.4-1,4.9-1.8,7.1-3.1h1.1Z"/>
    <path class="cls-7" d="M23.9,38.2c.3,1.2,0,2.5,0,3.7-.2,9.8.5,19.5,1.4,29.2,0,.8.4,1.1,1.2,1,6.2-.5,12,.8,17.6,3.4,5.4,2.5,5.9,5.9,1.5,9.9-3.7,3.2-8.1,4.8-12.8,5.7-1.9.4-3.8.7-5.7,1.1h-6.1c-.7-.8-.8-1.8-.8-2.8-1-13.2-2.5-26.3-4.7-39.4-.4-2.3-.4-4.6-.9-6.8v-1.4c2.6-1.8,5.6-2.8,8.6-3.5h.7,0Z"/>
    <path class="cls-12" d="M14.6,43.1c1.2,3.6,1.5,7.3,2.1,11,1.7,10.6,2.7,21.3,3.9,32,.2,2,.3,4,.4,6-1.8,0-3.6,0-5.3,0-.8,0-1.1-.1-1.1-1.1,0-4.7,0-9.4,0-14.2,0,0,0-33.8,0-33.8Z"/>
    <path class="cls-7" d="M133,89c-.6,0-1.3,0-1.9,0-2.9,0-3,0-3.3-2.7-.6-5.8-1-11.6-1.6-17.4-.2-1.7.2-2.6,2.1-2.6,1.2,0,2.5,0,3.7.2.4,0,.6.3.6.7.3,1.9,0,3.7.1,5.6.1,1.6-.2,3.2.2,4.8v11.4h0Z"/>
    <path class="cls-2" d="M23.1,38.2c-2.8,1.3-5.6,2.5-8.6,3.5,0-1.2-.5-2.8.1-3.4.6-.6,2.2-.1,3.4-.1,0,0,5,0,5,0Z"/>
    <path class="cls-5" d="M132.7,73c0-1.9,0-3.8,0-5.7.1,0,.2,0,.3,0v5.7c-.1.2-.2.2-.3,0h0Z"/>
    <path class="cls-13" d="M132.7,73c.1,0,.2,0,.3,0v4.6c-.7-1.5-.2-3.1-.3-4.7Z"/>
    <path class="cls-9" d="M59.6,44.2c1.4-.4,1.7.5,1.8,2.2.6,8.7,1.3,17.4,2,26.1.3,4.2.7,8.5,1.1,12.7,0,.9,0,1.4-1.1,1.3-.9,0-1.9-.2-2.8-.2-1-.1-.9-1-.9-1.6-.4-3.8-.7-7.6-1.1-11.4-.8-8.6-1.9-17.1-3.3-25.6-.3-1.9.5-2.9,2.3-3.2.5,0,1.1,0,2-.1h0Z"/>
    <path class="cls-9" d="M56.8,86.5c.6,1.4-.6,1.6-2,1.8-2.9.3-2.9.3-3.4-2.5-1.2-6-2.2-12.1-3.5-18.1-.2-1.1,0-1.4,1.1-1.7,4.9-1.3,5.3-1.1,5.9,4,.7,5.3,1.2,10.7,1.9,16.5h0Z"/>
    <path class="cls-9" d="M73,78c0,3.3,0,6.5,0,9.8,0,1-.3,1.3-1.3,1.3-3.8.1-3.8.2-4.1-3.8-.4-5.7-.9-11.4-1.5-17.1-.1-1.2,0-1.7,1.3-1.6.1,0,.2,0,.3,0,4.5-.6,4.9-.2,5,4.3,0,1.2.1,2.5.2,3.7,0,1.2,0,2.4,0,3.6h0Z"/>
    <path class="cls-10" d="M53.8,61.9c0,.6,0,1.1-.9,1-.8,0-1.9.5-2.1-.8-.3-2.3-.6-4.6-.8-6.9-.1-1,.7-1,1.3-1,.8,0,1.8-.2,1.9,1.1.2,2.2.5,4.3.7,6.6h0Z"/>
    <path class="cls-1" d="M72.6,59.6c0,.8,0,1.5,0,2.3,0,.9.3,1.9-1.3,1.9-1.4,0-1.9-.5-1.8-1.8,0-1.8,0-3.7,0-5.5,0-.8.1-1.4,1.1-1.3.8.1,2.1-.4,2,1.2,0,1.1,0,2.1,0,3.2Z"/>
    <path class="cls-10" d="M49.9,62c.2,1.2-.7,1.2-1.5,1.5-1.1.3-1-.5-1.1-1.1-.4-2-.6-4.1-1.1-6.1-.3-1.1.4-1.2,1.1-1.3.7-.1,1.6-.6,1.8.7.3,2.1.6,4.2.9,6.3h0Z"/>
    <path class="cls-11" d="M68.5,59.5c0,.9,0,1.8,0,2.7,0,1-.2,1.6-1.4,1.6s-1.1-.8-1.1-1.5c-.1-1.9-.2-3.8-.4-5.7-.1-1.2.6-1.3,1.5-1.4,1,0,1.4.2,1.4,1.3,0,1,0,2,0,3h0Z"/>
    <path class="cls-9" d="M124.4,84.7c.5,1.8-.6,1.8-2,1.8-2.1,0-2.8-.9-2.9-2.9-.4-7.4-1.3-14.7-2.2-22-.7-5.2-1.4-10.3-2.3-15.4-.2-1.2.1-1.4,1.2-1.6,5.9-.7,5-1.1,5.4,4.6.5,7.1,1.1,14.2,1.6,21.2.4,4.7.8,9.4,1.2,14.3h0Z"/>
    <path class="cls-9" d="M113.5,88.4c-1.3.3-1.7-.5-1.8-1.5-1.2-6.3-2.4-12.5-3.6-18.8-.3-1.4.2-2,1.6-2.2,4.7-.7,4.8-.7,5.4,3.9.7,5.6,1.2,11.3,1.9,16.9,0,.9-.2,1.3-1.1,1.3-.8,0-1.5.2-2.3.3Z"/>
    <path class="cls-14" d="M113.7,61c0,2-.1,2.2-1.9,2-.7,0-.9-.3-1-1-.2-2.1-.5-4.2-.7-6.3,0-.7-.4-1.5.8-1.5,1,0,2.3-.3,2.4,1.3.2,1.8.3,3.6.4,5.5h0Z"/>
    <path class="cls-8" d="M132.6,59.7c0,.8,0,1.5,0,2.3,0,.8.4,1.8-1.1,1.8-1.3,0-1.9-.3-1.9-1.8,0-1.9,0-3.8-.2-5.7,0-1,.4-1.3,1.3-1.2.8.1,1.9-.5,1.9,1.1v3.4h0Z"/>
    <path class="cls-14" d="M109.9,61.6c0,1,0,1.9-1.4,2-.8,0-1.1,0-1.2-.8-.3-2-.7-4-1.1-6.1-.2-1.2.3-1.6,1.3-1.7,1-.1,1.5,0,1.6,1.2.1,1.8.5,3.6.7,5.4Z"/>
    <path class="cls-14" d="M128.6,59.6c0,.9,0,1.8,0,2.7,0,1-.2,1.5-1.4,1.5-1.1,0-1.2-.6-1.3-1.4-.1-1.9-.2-3.8-.4-5.7-.1-1.1.4-1.4,1.4-1.5,1.1-.1,1.5.3,1.4,1.4,0,1,0,2,0,3h.2Z"/>
    <path class="cls-12" d="M91,86.9c-.4-3.2-.8-6.2-1.3-9.3,3.1,1,5.9,2,8.8,3.3-2.3,2.4-5,3.9-7.6,6Z"/>
    <path class="cls-12" d="M29.7,77.6c3.1.9,5.9,2,8.7,3.3-2.1,2-4.3,3.7-6.6,5.3-1.2.8-1.1-.3-1.2-.9-.4-2.4-.6-4.9-1-7.6Z"/>
  </g>
  <g class="cls-18">
    <text class="cls-19" transform="translate(14.7 102.6)"><tspan x="0" y="0">Leading Chinese video platform</tspan></text>
  </g>
  <path class="cls-3" d="M18.2,116.1c.2.2.5.5.7.8.3.3.5.6.9.7.8.3,1.5.9,2.2,1.4.8.5,1.6.7,2.5.7,0,0,.1,0,.2,0,1.3-.4,2.7-.5,4-.7s2.7-.3,4-.4c1.2-.1,2.5,0,3.7.2.5,0,.9,0,1.3-.3,1.1-.8,1.5-1.9,1.8-3.1.2-.8.3-1.6.2-2.4-.1-.7-.9-1.5-1.5-1.7-.4,0-.8.1-1.1.4-.2.1-.4.2-.6.3-.3,0-.5-.1-.4-.5.1-1.2,1.2-1.9,2.4-1.7.7,0,1.2.5,1.8.8,1.2.8,1.5,2.1,1.5,3.4,0,1-.2,1.8-.6,2.7-.4,1.1-1,2.1-1.7,3.1-.2.3-.3.7-.2,1.1,0,.6.3,1.2.5,1.7.2.4.2.9.2,1.4,0,.8.3,1.4.9,1.9.3.3.6.5.8.8.2.3.5.7.5,1.1.2,1.2.6,2.2,1,3.3.2.5,0,1-.4,1.2,0,0-.3,0-.3,0-.3-.2-.4-.5-.5-.8-.2-.7-.4-1.5-.7-2.2-.2-.6-.7-.9-1.2-1.1-.8-.2-1.5-.4-2.3-.7-.4-.1-.5-.1-.4.3,0,.6.1,1.1.2,1.6,0,.2,0,.4,0,.7-.3.9-.8,1.6-1.5,2.2,0,0,0,0,0,.1-.5,1-1.5.9-2.4.9,0,0-.2-.1-.3-.2,0-.2,0-.4,0-.6.2-.3.5-.4.8-.4.1,0,.3,0,.4-.2.3-.3.7-.7,1-1.1.2-.2.2-.5,0-.7-.4-.5-.8-1-1.1-1.6-.2-.3-.4-.6-.5-.9-.2-.5-.5-.6-1-.5-.4,0-.8,0-1.1,0-1,0-2.1,0-3.2,0-.3,0-.5.1-.8.2,0,0-.1.2-.1.2.2,1,.4,1.9.5,2.9.1.8.1,1.6.2,2.4,0,.2-.1.4-.4.4-.4,0-.9,0-1.3,0-.3,0-.2-.3-.3-.4,0-.2,0-.4.2-.6.1,0,.4-.2.4-.3,0-.2,0-.4-.2-.6-.4-.9-.9-1.7-1.2-2.6-.3-.6-.8-1-1.5-1-.3,0-.7-.1-1-.2,0,0-.1,0-.2,0-.5.4-1,.7-1.4,1.2-.7.7-1.5,1.4-2.2,2-.6.5-1.2,1-1.8,1.4-.2.1-.3.2-.5.3-.2.1-.4.2-.5.3-.6.5-1.3.3-2,.2-.1,0-.2-.2-.2-.3,0-.2,0-.4.2-.4.2-.1.5-.1.7-.2.2,0,.4,0,.6-.2,1-.9,1.9-2,2.6-3.1.3-.6.6-1.2.5-1.9,0-.9.1-1.8,0-2.7,0-.8-.4-1.4-1-1.9-.4-.4-.9-.5-1.5-.4-.3,0-.6,0-.7-.3-.2-.3-.4-.6-.5-.9,0-.1,0-.4.1-.5.3-.4.6-.8.9-1.2.2-.3.5-.6.9-.8.3-.1.5-.3.4-.7v-.2c0-.3-.1-.7.5-.9h0Z"/>
  <path class="cls-3" d="M18.4,154.2c-.5.4-1.1.7-1.3,1.1-.4.9-.7,1.9-.5,2.9,0,.2.3.2.5.4.2.2.6.5.6.8,0,.4-.4.6-.9.6-1,0-1.5-.5-1.5-1.5,0-1.1,0-2.2,0-3.4,0-.2.1-.4.2-.6.5-.8,1.1-1.6,1.6-2.4.7-.9,1-1.9.7-3-.3-1.3-.1-2.6.5-3.8.2-.4.1-.6,0-1-.9-1.7-1.2-3.5-1.3-5.3,0-.9.1-1.8.3-2.7,0-.3.3-.5.5-.9.2,1.2.4,2.3.6,3.4.3,1.7.7,3.3,1.7,4.7.1.2.4.4.6.4,2.5,0,5.1,0,7.6,0,.8,0,1.6-.2,2.3-.4.2,0,.4-.3.5-.4.8-.9,1.5-1.9,2.3-2.9.2-.2.5-.4.8-.5.7-.1,1.4-.4,2.2,0,.6.2,1.1.4,1.2,1.1,0,.1.2.2.3.3.2.1.5.2.7.3.9.3,1.1.6.9,1.6,0,.5-.8,1.1-1.4,1.1h-1.8c-1.2,1.5-1.1,3.4-1.7,5-.4,1.1-.8,2.2-1.7,3.1-.4.4-.6.8-.6,1.3,0,1-.2,2.1-.2,3.1,0,.7.3,1.3.9,1.6.6.2.5.7.5,1.1,0,.1-.3.3-.5.4,0,0,0,0,0,0-.7-.2-1.7.5-2.2-.5-.4-.7-.7-1.4-.8-2.2-.2-1-.1-2.1-.2-3.1,0-.7-.5-1.1-1.2-1.1-1,0-1.9-.2-2.7-.8-.3-.2-.8-.3-1.2-.4-.5-.2-.7.2-1,.4-.1.1-.5,0-.7,0-.5,0-.8,0-1.1.4-.3.4-.6.8-1,1.1-1.2,1.1-1.1,2.4-.9,3.8,0,.6.6.9,1.2,1,.5,0,.6.4.5.7,0,.2-.4.5-.7.5-.9.2-1.5,0-1.9-1-.5-1-.8-2.1-.8-3.2,0-.3,0-.6-.2-1.1h0Z"/>
  <g>
    <path class="cls-3" d="M52.1,125.4c-.2.4-.3.8-.5,1.3-.4.8-.5,1.3.4,2.1.8.8,1.1,2.3,1.5,3.6.2.5-1.4,1.9-2,1.9-1.2,0-1.6.5-1.8,1.6-.6,2.8-.5,5.6-.1,8.4.2,1,0,2.1,1,2.8.2.1.3.3.4.4.6.4,1.1.7,1.8,1,.4.2,1,.2,1.5.2,1.2.9,2.1,2.3,3.7,2.5.4,0,.8,0,1.1,0,1.6-.5,3-1.3,3.8-2.8,0-.2.3-.3.5-.4,2.1-1,3.3-2.5,3.3-4.8,0-1.6,0-3.2,0-4.8,0-.4-.2-.9-.4-1.3-.3-1-.6-2-.8-2.9-1.3-.4-2.7-.7-4-1.3-.8-.3-1.2-1.1-1-2,0-.4,0-.7.1-1.1.6-2.7,2.2-2.6,4.1-1.6.7.3,1.2.8,2,1.4,0-1.1,0-1.9,0-2.8,0-.7.4-1.4.4-2,0-.6-.3-1.2-.5-1.9-.4-1.1-.8-2.3-1.2-3.4,0-.1-.3-.2-.4-.2-1.2,0-2.5-.2-3.7-.2h-.3c0,0,0-.2,0-.3.8-.1,1.6-.4,2.4-.3,2.3,0,3.9,1.2,5.5,2.8,2.7,2.8,3.3,6.5,4,10,.3,1.6.3,3.7-.5,5.1-.8,1.7,0,3.1-.3,4.6,0,.3.2.6.4,1,.7-.6,1.4-1,1.9-1.6.9-1.1,1.1-2.6,1.5-3.9.6-2,.9-4,1.2-5.6.2,1.3.4,3.1.8,4.8.4,1.9,1.2,3.8,1.6,5.8.3,1.8.2,3.6.3,5.4,0,.9-.5,1.8.2,2.7.1.2,0,.8-.3,1.1-.4.4-.9.8-1.4.9-.9.3-1.9.6-2.9.8-.5,0-1.1,0-1.4-.3-1-.7-2.1-.3-2.5.8-.5,1.5-1.3,3-1.9,4.5-.3.7-.6,1.5-.9,2.2-.2.4-.6.8-.9,1.2-1.4,1.9-3.6,1.9-5.7,1.9-1,0-2.2-.7-3.1-1.3-.2-.2,0-1.1,0-1.6,0-.2.3-.4.4-.7.2-.6,0-1.1-.7-1.2-1.2-.1-2.4-.1-3.5-.4-1.7-.4-3.5-.6-4.2-2.6-.1-.3-.4-.5-.5-.7-1-1.4-1.4-2.9-1.5-4.6-.1-3.6-.6-7.2-.8-10.8,0-.8.1-1.6.3-2.4.2-.8.2-1.6-.4-2.3-.9-1.2-1.1-2.6-.6-3.9.2-.7,1-1.5,1.7-1.8,1.3-.5,2.1-1.5,2.8-2.6.1-.2.3-.3.4-.5,0,0,0,0,0,0h0Z"/>
    <path class="cls-3" d="M60.1,142c.1-.1.3-.5.6-.6.3-.1.8,0,1,.2.6.7,1.2,1.5,1.6,2.3.3.6.2,1.2-.5,1.6-.6.3-1,.4-1.5-.2-.8-.9-1.1-1.8-1.2-3.2h0Z"/>
    <path class="cls-3" d="M56,143.6c-.2.5-.6,1.4-1,2.2,0,.2-.7.2-1,.1-.4-.2-1-.5-1.1-.9-.3-.7.9-2.8,1.6-3.2.7-.4,1.6.3,1.5,1.7h0Z"/>
    <path class="cls-3" d="M56.4,148.9h3.9c-.7,1.4-2.3,1.5-3.9,0Z"/>
  </g>
  <path class="cls-3" d="M78.5,126.2v-.7c0,0,0-.2.2-.4.2.4.3.8.5,1.1,0,.2.1.5.3.7.6.7,1.3,1.2,2.2,1.5.3.1.6.2.9.1.8-.2,1.6-.4,2.4-.7.9-.4,1.7-1,1.9-2,.2-.7,0-1.1-.5-1.5-.4-.3-.8-.5-1.2-.8-1.1-.7-1.9-1.6-2.1-2.9,0-.6-.2-1.2-.7-1.7-.1-.1-.4-.1-.6-.2,0,.2-.2.4-.1.6,0,.3.2.5.3.8.1.4-.1.6-.5.5-.3,0-.5-.3-.8-.4-.2.4-.5.4-.8,0-.2-.2-.2-.4-.3-.7-.1-.1-.3-.2-.5-.3-.1,0-.3-.2-.3-.3s.2-.3.3-.3c.1,0,.3-.1.6-.2-.3-.2-.4-.3-.6-.4-.2-.2-.2-.4,0-.6.1-.1.3-.2.5-.2.2,0,.4.2.6.3.2-.4.4-.9.7-1.3.2-.3.5-.5.9-.4.8.2.8.2.9-.6,0,0,0-.1,0-.2.2-1.6,1.3-2.5,2.6-3.3,0,0,.2,0,.3,0,.5-.1.6-.4.3-.9-.4.1-1.1,0-1.1-.2,0-.2.2-.5.3-.8,0,0-.2,0-.3-.2-.1-.1-.2-.3-.3-.5.2,0,.4-.2.6-.2.1,0,.3,0,.3,0,0-.3.1-.6.2-.8h.3c.3.2.5.3.8.5,0,0,0,0,0,0,.3-.2.6-.1.8.2.2.2.4.5,0,.8-.1,0-.2.3-.4.5.4,0,.6,0,.9.1.3,0,.7,0,.9.2.5.3.9.2,1.4,0,.4-.3.9-.5,1.4-.3,1,.3,2.1.7,2.8,1.5.8.9.9,1.7-.3,2.3-1.1.5-2.2,1.2-3.5.9-.2,0-.4,0-.6.1-.2.1-.3.3-.5.5.3.3.5.2.7,0,.4-.5.8-.4,1.1.1,0,.1.2.3.3.3.4,0,.7.2.7.7-.2.1-.4.2-.7.3,0,.2.2.4.2.6-.3.3-.6,0-.9,0,0,.5,0,.6-.6.3-.2-.1-.4-.4-.7-.5-.2-.1-.3-.3-.5-.3-.7,0-1.2-.3-1.5-1.2-.2.4-.4.7-.6,1,.6,0,1,.3,1.2.7l.8,1.2c.8-.5,1.2-.5,1.5-.1,0,.2.2.4.1.5,0,.2-.3.4-.4.5.2.2.5.4.7.7,0,0,0,.3,0,.4-.2,0-.3,0-.5,0-.3,0-.5-.2-.8-.3,0,.2.1.4.1.6,0,.5-.2.7-.6.4-.3-.1-.5-.3-.8-.5-.3.3-.8.3-1,0-.2-.3,0-.6.1-.8.3-.4.4-1,0-1.5-.1,0-.3.1-.4.2-.5.3-.9.6-1.4.9-.4.3-.6,1.1,0,1.4.4.2.9.5,1.4.7,1.3.6,2.1,2.4,2,3.7-.2,1.8-1.1,3-2.7,3.7-1.2.6-2.4.7-3.7.7s-2.1-.4-2.9-1.1c-.8-.6-1.3-1.6-1.5-2.6h0Z"/>
  <path class="cls-3" d="M81.4,160.1c.5-1,1-2.1,1.5-3.1.6-1.3,1.2-2.5,1.8-3.8,0-.2.3-.4.3-.7.2-2.2,1.6-3.5,3.2-4.7,1.7-1.3,2.4-3.1,2.2-5.2,0-1.1,0-2.2-.1-3.2,0-.3-.3-.5-.6-.8,0,0,.3-.3.4-.6,1-2.9,3.4-3.7,6-4.2,2.9-.6,5.7,0,8.6,0,1.8,0,3.6,0,5.3-.1.7,0,1.5-.6,2.1-1,.6-.4.2-2.4-.5-2.5-.6-.1-1.3-.1-1.9,0-.8.1-1.5,0-1.8-.8-.3-.8,0-1.3.7-1.8.7-.6,1.4-1.2,1.9-1.7-.8-1.3-1.4-2.6-2.2-3.7-.2-.3-.8-.5-1.2-.6-1.1-.2-2.1-.5-2.8-1.8,1,.8,1.8,1.6,3.1,1.3-.9-2.2-2.7-4.1-1.6-6.7-.2,2.2.5,4,1.8,5.6.5.6,1.2,1.1,1.9,1.4.8.4,1.5,0,1.7-.9.3-1.7.7-3.4-.6-5-.6-.7-1.2-1.6-1-2.7.4.9.8,1.8,1.3,2.6.7,1,1.2,1,2,0,.3-.3.5-.7.8-1.1s.4-.8.6-1.2c0,0,.2,0,.2.1-.4.8-.7,1.8-1.2,2.4-1.6,1.7-1.4,3.8-1.4,6.1.3-.3.4-.4.5-.6.3.6.5,1.3.9,1.8.2.2,1,.3,1.3,0,.5-.4.7-1.1,1-1.5.3,0,.7,0,1-.2.2,0,.5-.3.7-.5.3-.3.6-.7.8-1-.4-.2-.7-.5-1.1-.7-1.1-.4-2.1-.7-3.2-1-.2,0-.5-.2-.6-.5,1,.3,2,.5,3.1.8.9.2,1.2-.1.9-1-.5-1.5-1.1-3-1.5-4.6.5.9,1,1.8,1.4,2.7.5,1,.8,2.1,1.3,3.1.3.8.8.8,1.4.2,2-1.9,2.3-4.8.6-7.1-.3-.4-.6-.8-.9-1.2,0,0,.2-.1.3-.2.8,1,1.5,2,2.3,3.1v-3.4c.2.8.5,1.5.7,2.3v.6c0,.1-.2.2-.2.4-.4,3.7-2.4,6.4-5.3,8.5-.6.4-1.1.9-1.7,1.3,0,.1.1.3.2.4.4,0,.8-.1,1.1-.3.4-.4.8-.9,1.2-1.3.7-.6,1.4-1.1,2.3-1.7.3,1.9-.1,3.1-1.4,4.1-1.2,1-1.1,1-.5,2.4.6,1.4,1.2,2.9,1.3,4.4.3,2.4.2,4.8.2,7.2,0,2-.5,3.8-1.9,5.4-.5.6-1,1.4-1.3,2.1-.9,2.9-1.9,5.7-2.5,8.7-.5,2.3-.8,4.8,1.1,6.8.2.2.3.6.5.9-1.7.2-2.9-1-2.8-2.9,0-3.2.2-6.5.3-9.7,0-.9,0-1.9,0-2.8h-1.2v1.1c0,2.1.2,4.2.2,6.3,0,2.5-.2,5.1.7,7.5.2.6.2,1-.3,1.3-.7,0-1.2-.3-1.2-1.1,0-.9,0-1.7-.2-2.6,0-1.5,0-3-.3-4.5-.4-2.4-1.1-4.7-1.7-7,0-.3-.5-.6-.8-.6-2.1,0-4-.4-5.9-1.1-.4-.1-1,0-1.3.3-1.6,1.5-3.2,3.1-4.8,4.6-.7.6-1.2,1.4-.9,2.3.8,2.3,1.3,4.9,3.3,6.6.3.3.5.7.8,1,0,.1-.1.2-.2.4-.7-.2-1.7-.3-2.2-.8-.7-.8-1.2-1.8-1.7-2.8-.7-1.5-1.4-3.1-2.1-4.6-1.1-2.4-1.1-2.4.8-4.4.4-.5.8-1.1,1.1-1.6.2-.3.2-.7.3-1.1,0,0-.2-.1-.2-.2-2.1,1.5-4.2,3-6.3,4.6-3.5,2.8-5.7,6.3-6.1,10.9,0,.7-.6.8-1.1.8-.2,0-.5-.5-.6-.9-.1-.3-.1-.7-.2-1v-.4h0Z"/>
  <g class="cls-18">
    <text class="cls-19" transform="translate(18.6 171.7)"><tspan x="0" y="0">Over 1M animal videos</tspan></text>
  </g>
  <g class="cls-18">
    <text class="cls-25" transform="translate(166.3 65.2)"><tspan x="0" y="0">V</tspan></text>
    <text class="cls-21" transform="translate(181.8 65.2)"><tspan x="0" y="0">ideo </tspan></text>
    <text class="cls-25" transform="translate(233.9 65.2)"><tspan x="0" y="0">V</tspan></text>
    <text class="cls-21" transform="translate(249.5 65.2)"><tspan x="0" y="0">iewers</tspan></text>
  </g>
  <rect class="cls-15" x="166.4" y="106.6" width="163.4" height="28.7"/>
  <g class="cls-18">
    <text class="cls-25" transform="translate(168.5 130.5)"><tspan x="0" y="0">V</tspan></text>
    <text class="cls-21" transform="translate(184.1 130.5)"><tspan x="0" y="0">ideo Creators</tspan></text>
  </g>
  <g class="cls-18">
    <text class="cls-27" transform="translate(165.1 97.7)"><tspan x="0" y="0">Comments</tspan></text>
  </g>
  <g class="cls-18">
    <text class="cls-19" transform="translate(165.1 77.1)"><tspan x="0" y="0">Over 6M</tspan></text>
  </g>
  <line class="cls-31" x1="165.5" y1="78" x2="199.7" y2="78"/>
  <g>
    <g class="cls-18">
      <text class="cls-28" transform="translate(166.8 168.7)"><tspan x="0" y="0">T</tspan></text>
      <text class="cls-24" transform="translate(185.3 168.7)"><tspan x="0" y="0">ags</tspan></text>
    </g>
    <g class="cls-18">
      <text class="cls-19" transform="translate(166.8 142.7)"><tspan x="0" y="0">Over 60K unique</tspan></text>
    </g>
    <line class="cls-31" x1="166.8" y1="143.8" x2="233.9" y2="143.8"/>
  </g>
  <g class="cls-29">
    <g>
      <line class="cls-30" x1="341" y1="77.1" x2="359.7" y2="77.1"/>
      <polygon class="cls-4" points="357.8 64.2 365.9 77.1 357.8 89.9 357.7 89.9 357.7 64.2 357.8 64.2"/>
    </g>
  </g>
  <g class="cls-29">
    <g>
      <line class="cls-30" x1="341" y1="143.1" x2="359.7" y2="143.1"/>
      <polygon class="cls-4" points="357.8 130.2 365.9 143.1 357.8 156 357.7 156 357.7 130.2 357.8 130.2"/>
    </g>
  </g>
  <g class="cls-18">
    <text class="cls-26" transform="translate(372.1 83.9)"><tspan x="0" y="0">W</tspan></text>
    <text class="cls-19" transform="translate(380.4 83.9)"><tspan x="0" y="0">ord frequency</tspan></text>
  </g>
  <g class="cls-18">
    <text class="cls-19" transform="translate(372.2 94.3)"><tspan x="0" y="0">Semantic analysis</tspan></text>
  </g>
  <g class="cls-18">
    <text class="cls-19" transform="translate(481.5 94.3)"><tspan x="0" y="0">Sentiment analysis</tspan></text>
  </g>
  <g class="cls-18">
    <text class="cls-17" transform="translate(481.9 83.9)"><tspan x="0" y="0">T</tspan></text>
    <text class="cls-19" transform="translate(486.4 83.9)"><tspan x="0" y="0">opic modeling</tspan></text>
  </g>
  <g class="cls-18">
    <text class="cls-16" transform="translate(372.2 55)"><tspan x="0" y="0">Linguistic </tspan></text>
    <text class="cls-16" transform="translate(372.2 72)"><tspan x="0" y="0">Patterns</tspan></text>
  </g>
  <g class="cls-18">
    <text class="cls-22" transform="translate(481.9 55)"><tspan x="0" y="0">T</tspan></text>
    <text class="cls-16" transform="translate(490.9 55)"><tspan x="0" y="0">opic &amp;</tspan></text>
    <text class="cls-16" transform="translate(481.9 72)"><tspan x="0" y="0">Sentiment</tspan></text>
  </g>
  <g>
    <g class="cls-18">
      <text class="cls-20" transform="translate(372.6 163.9)"><tspan x="0" y="0">V</tspan></text>
      <text class="cls-16" transform="translate(384.3 163.9)"><tspan x="0" y="0">ideo</tspan></text>
      <text class="cls-20" transform="translate(418.3 163.9)"><tspan x="0" y="0"> </tspan></text>
      <text class="cls-16" transform="translate(423 163.9)"><tspan x="0" y="0">Themes</tspan></text>
    </g>
    <g class="cls-18">
      <text class="cls-19" transform="translate(373.6 176.3)"><tspan x="0" y="0">Network analysis</tspan></text>
    </g>
  </g>
  <image class="cls-18" width="312" height="153" transform="translate(479.3 99.5) scale(.1)" xlink:href="internet_cat-2.png"/>
  <image class="cls-18" width="222" height="226" transform="translate(402.8 128) scale(0)" xlink:href="internet_cat-3.png"/>
  <image class="cls-18" width="221" height="214" transform="translate(376.7 128.4) scale(0)" xlink:href="internet_cat-4.png"/>
  <image class="cls-18" width="360" height="136" transform="translate(431.7 129.6) scale(.1)" xlink:href="internet_cat-5.png"/>
</svg>